# xmcd
#
# Track frame offsets:
# 150
# 20044
# 41095
# 57595
# 79879
# 118856
# 141759
# 163181
# 183282
# 196933
# 229205
# 257820
# 277377
# 292808
# 317143
#
# Disc length: 4458 seconds
#
#
# Revision: 0
# Processed by: cddbd v1.5.1PL0 Copyright (c) Steve Scherf et al.
# Submitted via: FreeRIP 2.90 
#
DISCID=e911680f
DTITLE=Eric Clapton - Chronicles The Best Of Eric Clapton
DYEAR=1999
DGENRE=Blues
TTITLE0=Riding With The King
TTITLE1=Ten Long Years
TTITLE2=Key To The Highway
TTITLE3=Marry You
TTITLE4=Three O'Clock Blues
TTITLE5=Help The Poor
TTITLE6=I Wanna Be
TTITLE7=Worried Life Blues
TTITLE8=Days Of Old
TTITLE9=When My Heart Beats Like A Hammer
TTITLE10=Hold On I'M Coming
TTITLE11=Come Rain Or Come Shine
TTITLE12=Reptle
TTITLE13=Inside Of Me
TTITLE14=Fall Like Rain
EXTD=
EXTT0=
EXTT1=
EXTT2=
EXTT3=
EXTT4=
EXTT5=
EXTT6=
EXTT7=
EXTT8=
EXTT9=
EXTT10=
EXTT11=
EXTT12=
EXTT13=
EXTT14=
PLAYORDER=
